<?xml version="1.0" standalone="no"?>
<!DOCTYPE svg PUBLIC "-//W3C//DTD SVG 20010904//EN"
 "http://www.w3.org/TR/2001/REC-SVG-20010904/DTD/svg10.dtd">
<svg version="1.0" xmlns="http://www.w3.org/2000/svg"
 width="1024.000000pt" height="1024.000000pt" viewBox="0 0 1024.000000 1024.000000"
 preserveAspectRatio="xMidYMid meet">
<metadata>
Created by potrace 1.11, written by Peter Selinger 2001-2013
</metadata>
<g transform="translate(0.000000,1024.000000) scale(0.100000,-0.100000)"
fill="#000000" stroke="none">
<path d="M4044 8563 c-48 -51 -104 -195 -138 -358 -45 -220 -57 -475 -21 -461
8 3 10 -4 7 -21 -3 -16 -1 -24 5 -20 6 4 13 -2 16 -12 2 -11 15 -24 27 -31 20
-11 21 -10 15 12 -5 18 -4 20 4 8 6 -8 8 -22 6 -31 -4 -12 3 -18 27 -24 53
-12 112 -16 128 -9 16 8 27 10 51 12 20 2 65 41 61 54 -1 5 2 7 7 4 5 -3 15 2
22 11 12 14 12 16 -1 9 -8 -4 -7 -1 3 7 30 25 37 69 15 93 -14 16 -15 21 -4
21 8 0 13 -4 10 -8 -2 -4 0 -10 6 -14 5 -3 10 2 11 12 1 10 2 27 3 38 0 11 -2
30 -6 42 -4 12 -3 25 3 28 5 4 7 10 4 15 -3 5 -8 42 -10 82 -6 92 -12 130 -35
248 -53 263 -136 375 -216 293z m81 -662 c-9 -8 -36 -10 -30 -2 2 4 11 8 20 8
8 0 13 -3 10 -6z m-45 -55 c0 -2 -8 -10 -17 -17 -16 -13 -17 -12 -4 4 13 16
21 21 21 13z m-74 -31 c0 -14 -4 -25 -8 -25 -6 0 -5 25 1 48 3 10 7 -2 7 -23z
m82 -5 c-7 -10 -14 -17 -17 -15 -4 4 18 35 25 35 2 0 -1 -9 -8 -20z m38 -6 c1
-9 0 -13 -4 -10 -3 4 -7 14 -8 22 -1 9 0 13 4 10 3 -4 7 -14 8 -22z m94 21 c0
-1 -10 -10 -22 -21 -14 -12 -18 -13 -10 -3 6 9 10 18 7 21 -3 2 2 5 10 5 8 0
15 -1 15 -2z m-333 -22 c-4 -3 -1 -13 6 -22 11 -14 10 -14 -5 -2 -21 15 -23
31 -6 31 6 0 8 -3 5 -7z m278 -11 c-3 -3 -11 0 -18 7 -9 10 -8 11 6 5 10 -3
15 -9 12 -12z m96 1 c13 -16 12 -17 -3 -5 -9 8 -23 10 -29 6 -8 -4 -9 -3 -5 4
10 17 21 15 37 -5z m-298 -16 c-4 -6 0 -8 8 -5 10 4 15 -1 15 -12 0 -11 -5
-16 -15 -12 -10 4 -12 1 -6 -8 5 -9 4 -11 -4 -6 -6 4 -9 12 -5 17 3 5 1 16 -5
23 -8 9 -7 13 4 13 8 0 11 -5 8 -10z m87 -6 c-4 -9 -9 -20 -10 -26 -1 -5 -4
-12 -7 -15 -2 -3 -4 0 -3 5 5 21 -1 29 -10 15 -7 -12 -9 -10 -7 7 1 18 4 20
16 10 12 -10 14 -9 9 4 -4 9 -1 16 7 16 10 0 11 -5 5 -16z m115 0 c3 -5 2 -12
-3 -15 -5 -3 -9 1 -9 9 0 17 3 19 12 6z m-39 -43 c1 -8 -2 -22 -7 -29 -7 -10
-8 -6 -5 13 2 15 0 29 -5 32 -5 2 -4 3 2 2 7 -1 13 -9 15 -18z m98 -1 c-3 -8
-11 -14 -19 -14 -21 0 -19 15 3 20 9 3 18 5 19 6 1 0 0 -5 -3 -12z m-214 -11
c-7 -7 -13 -7 -20 0 -6 6 -3 10 10 10 13 0 16 -4 10 -10z m160 -21 c-5 -7 -6
-15 -2 -20 4 -4 -3 -2 -15 4 -27 14 -31 23 -6 14 10 -4 14 -2 10 4 -3 5 0 10
8 10 10 0 12 -4 5 -12z m-116 -13 c3 -5 -1 -9 -9 -9 -8 0 -12 4 -9 9 3 4 7 8
9 8 2 0 6 -4 9 -8z m58 -36 c7 4 8 2 4 -5 -9 -13 -26 -5 -25 12 0 9 2 8 6 -1
2 -6 10 -9 15 -6z m-28 -12 c3 -8 2 -12 -4 -9 -6 3 -10 10 -10 16 0 14 7 11
14 -7z"/>
<path d="M3453 8500 c-74 -30 -125 -243 -126 -525 0 -198 3 -264 14 -271 5 -2
6 -11 2 -19 -3 -10 1 -15 13 -16 11 0 14 -3 7 -6 -7 -2 -13 -9 -13 -14 0 -6 5
-7 12 -3 8 5 9 2 5 -10 -4 -10 -1 -19 8 -22 8 -4 15 -11 15 -18 0 -11 31 -35
62 -48 21 -9 34 8 19 25 -7 9 -5 13 8 13 15 0 17 -5 10 -23 -11 -28 -1 -34 53
-32 55 3 62 7 46 27 -11 13 -11 14 0 8 7 -4 19 -3 26 3 9 8 13 7 13 -4 0 -8
-4 -12 -9 -9 -4 3 -8 0 -8 -5 0 -6 6 -11 14 -11 17 0 38 25 29 34 -4 4 0 4 8
1 9 -3 27 3 40 14 17 14 20 20 9 21 -9 0 -4 6 10 13 15 8 25 21 24 35 0 11 3
19 7 16 11 -7 27 72 19 96 0 3 -3 28 -4 56 -2 28 -8 59 -13 69 -6 10 -8 26 -6
36 3 11 1 19 -3 19 -5 0 -10 12 -10 28 -1 15 -4 36 -7 47 -3 11 -13 47 -22 80
-42 158 -117 317 -176 370 -42 38 -43 38 -76 25z m270 -615 c-3 -9 -8 -14 -10
-11 -3 3 -2 9 2 15 9 16 15 13 8 -4z m-277 -10 c-1 -8 -5 -17 -8 -21 -5 -4 -4
16 1 34 3 9 9 -1 7 -13z m-79 -20 c0 -8 -4 -12 -9 -9 -5 3 -6 10 -3 15 9 13
12 11 12 -6z m203 0 c0 -2 -9 -3 -19 -2 -11 0 -18 5 -15 9 4 6 34 0 34 -7z
m153 -10 c-3 -9 -8 -14 -10 -11 -3 3 -2 9 2 15 9 16 15 13 8 -4z m-33 -5 c0
-5 -2 -10 -4 -10 -3 0 -8 5 -11 10 -3 6 -1 10 4 10 6 0 11 -4 11 -10z m-260
-20 c0 -5 -5 -10 -11 -10 -5 0 -7 5 -4 10 3 6 8 10 11 10 2 0 4 -4 4 -10z
m330 -14 c0 -2 -8 -10 -17 -17 -16 -13 -17 -12 -4 4 13 16 21 21 21 13z m-60
-20 c0 -2 -8 -10 -17 -17 -16 -13 -17 -12 -4 4 13 16 21 21 21 13z m-133 -21
c0 -8 -3 -13 -5 -10 -3 3 -10 0 -17 -5 -8 -7 -12 -5 -12 5 0 8 4 12 8 9 4 -2
10 0 14 6 9 14 12 13 12 -5z m-197 -5 c0 -5 -2 -10 -4 -10 -3 0 -8 5 -11 10
-3 6 -1 10 4 10 6 0 11 -4 11 -10z m265 1 c-3 -2 -16 -6 -28 -8 -15 -2 -18 0
-9 5 14 9 45 12 37 3z m109 -7 c3 -9 -1 -11 -11 -7 -12 5 -14 3 -8 -8 5 -8 4
-11 0 -6 -5 4 -10 13 -11 21 -2 16 24 17 30 0z m-92 -21 c-5 -10 -7 -24 -5
-30 3 -7 0 -13 -5 -13 -12 0 -10 43 3 52 15 12 17 10 7 -9z m-281 -10 c13 -16
12 -17 -3 -4 -10 7 -18 15 -18 17 0 8 8 3 21 -13z m209 13 c0 -2 -7 -7 -16
-10 -8 -3 -12 -2 -9 4 6 10 25 14 25 6z m-56 -22 c3 -8 2 -12 -4 -9 -6 3 -10
10 -10 16 0 14 7 11 14 -7z m-42 -26 c-2 -10 -6 -18 -7 -18 -1 0 -5 8 -7 18
-3 11 0 19 7 19 7 0 10 -8 7 -19z m124 -10 c1 -35 -1 -35 -14 0 -7 21 -7 29 2
29 6 0 11 -13 12 -29z m-103 2 c-3 -12 -8 -19 -11 -16 -5 6 5 36 12 36 2 0 2
-9 -1 -20z m-93 2 c0 -5 -7 -9 -15 -9 -8 0 -12 4 -9 9 3 4 9 8 15 8 5 0 9 -4
9 -8z m116 -7 c-1 -8 -5 -17 -8 -21 -5 -4 -4 16 1 34 3 9 9 -1 7 -13z m60 -34
c0 -14 -4 -17 -12 -11 -6 6 -14 7 -17 3 -4 -3 -7 -1 -7 5 0 6 8 13 18 15 9 3
17 5 17 6 1 0 1 -8 1 -18z m144 5 c0 -3 -4 -8 -10 -11 -5 -3 -10 -1 -10 4 0 6
5 11 10 11 6 0 10 -2 10 -4z m-318 -34 c-3 -9 -1 -13 5 -9 5 3 10 0 10 -8 0
-17 -14 -10 -26 14 -7 13 -6 18 4 18 7 0 11 -7 7 -15z m135 -18 c0 -9 -8 -9
-29 -2 -35 13 -35 15 0 14 16 -1 29 -6 29 -12z"/>
<path d="M4734 8480 c-41 -25 -75 -64 -127 -145 -70 -111 -174 -336 -162 -355
3 -5 0 -10 -6 -12 -6 -2 -11 -16 -11 -31 0 -15 -5 -24 -11 -20 -6 4 -8 -4 -5
-20 3 -15 2 -24 -3 -22 -8 5 -24 -48 -22 -77 0 -10 -5 -18 -11 -18 -6 0 -4 -5
4 -10 12 -8 12 -10 1 -10 -8 0 -4 -8 10 -20 13 -10 18 -19 12 -20 -7 0 -13 5
-13 11 0 5 -5 7 -10 4 -7 -4 -7 -13 0 -26 6 -10 8 -19 4 -19 -3 0 -1 -6 5 -13
6 -8 8 -16 6 -19 -11 -10 73 -90 86 -83 8 5 10 4 5 -3 -4 -7 -1 -13 6 -14 7 0
18 -2 23 -2 6 -1 15 -5 21 -9 27 -16 154 -5 154 14 0 6 5 7 12 3 7 -5 9 -2 5
9 -4 11 -2 14 9 10 19 -7 56 26 49 44 -2 8 -1 11 5 8 12 -8 48 77 56 133 3 26
8 51 11 55 3 5 7 23 9 40 2 18 7 46 10 62 16 96 23 314 12 400 -19 143 -66
198 -134 155z m-320 -658 c3 -5 -1 -9 -9 -9 -8 0 -12 4 -9 9 3 4 7 8 9 8 2 0
6 -4 9 -8z m71 -1 c3 -5 2 -12 -3 -15 -5 -3 -9 1 -9 9 0 17 3 19 12 6z m-24
-28 c13 -16 12 -17 -3 -4 -17 13 -22 21 -14 21 2 0 10 -8 17 -17z m70 -16 c-6
-8 -9 -17 -6 -20 3 -4 2 -5 -2 -2 -3 3 -11 0 -18 -5 -8 -7 -12 -5 -12 5 0 8 4
12 8 10 3 -3 12 2 19 10 7 8 15 15 17 15 3 0 0 -6 -6 -13z m-84 -26 c0 -11 -5
-18 -9 -15 -4 3 -5 11 -1 19 7 21 12 19 10 -4z m20 -3 c-3 -8 -6 -5 -6 6 -1
11 2 17 5 13 3 -3 4 -12 1 -19z m99 -6 c-3 -3 0 -12 6 -21 10 -13 10 -14 -2
-4 -16 15 -23 46 -8 37 5 -3 7 -9 4 -12z m42 -9 c-6 -7 -12 -13 -13 -13 -2 0
-5 6 -8 13 -3 7 3 13 14 13 13 0 15 -3 7 -13z m-71 1 c-3 -3 -12 -4 -19 -1 -8
3 -5 6 6 6 11 1 17 -2 13 -5z m170 -7 c0 -9 -10 -13 -26 -12 -14 1 -37 -2 -51
-7 -19 -7 -22 -6 -14 2 6 6 25 12 42 14 17 1 35 5 38 9 10 10 11 9 11 -6z
m-220 -17 c-1 -11 -5 -20 -9 -20 -10 0 -10 4 -2 24 8 22 13 20 11 -4z m46 -17
c-3 -7 -6 -13 -8 -13 -2 0 -5 6 -8 13 -3 8 1 14 8 14 7 0 11 -6 8 -14z m247
14 c0 -2 -8 -12 -19 -21 -16 -15 -19 -15 -24 -2 -4 10 -1 13 7 10 8 -3 17 -1
21 5 6 11 15 15 15 8z m-73 -29 c-3 -8 -6 -5 -6 6 -1 11 2 17 5 13 3 -3 4 -12
1 -19z m-286 -5 c13 -16 12 -17 -3 -4 -10 7 -18 15 -18 17 0 8 8 3 21 -13z
m144 -1 c-3 -3 -11 0 -18 7 -9 10 -8 11 6 5 10 -3 15 -9 12 -12z m50 8 c3 -6
-1 -7 -9 -4 -18 7 -21 14 -7 14 6 0 13 -4 16 -10z m-126 -13 c8 -10 7 -14 -4
-14 -8 0 -11 5 -8 10 4 6 -1 8 -11 4 -10 -4 -15 -3 -11 3 8 14 20 12 34 -3z
m154 0 c3 -8 -1 -14 -8 -14 -7 0 -11 6 -8 14 3 7 6 13 8 13 2 0 5 -6 8 -13z
m-197 -32 c-3 -23 -12 -26 -13 -5 -1 11 2 20 7 20 4 0 7 -7 6 -15z m98 -1 c3
-7 -2 -10 -15 -7 -22 6 -26 20 -4 20 8 0 16 -6 19 -13z m85 1 c3 -4 -7 -4 -22
-1 -16 3 -27 0 -27 -6 0 -6 -3 -9 -6 -5 -3 3 -3 10 0 16 6 10 43 7 55 -4z m64
-4 c3 -13 0 -18 -7 -15 -7 3 -13 11 -13 19 0 22 14 18 20 -4z m-208 -31 c3 -5
1 -10 -4 -10 -6 0 -11 5 -11 10 0 6 2 10 4 10 3 0 8 -4 11 -10z m198 -10 c10
-12 9 -12 -3 -3 -8 6 -23 9 -33 8 -9 -2 -15 0 -12 5 7 12 33 6 48 -10z m-108
-30 c6 -1 12 -3 14 -6 2 -2 -7 -1 -19 1 -13 3 -28 10 -34 16 -8 9 -6 9 9 1 11
-5 25 -11 30 -12z m42 -2 c-3 -8 -6 -5 -6 6 -1 11 2 17 5 13 3 -3 4 -12 1 -19z
m30 7 c0 -8 -4 -12 -9 -9 -5 3 -6 10 -3 15 9 13 12 11 12 -6z"/>
<path d="M3832 7519 c-13 -5 -28 -7 -33 -3 -5 3 -9 2 -9 -3 0 -4 -17 -9 -38
-10 -77 -3 -122 -15 -122 -32 0 -11 -3 -12 -8 -4 -9 14 -44 11 -50 -5 -2 -7
-8 -12 -13 -12 -6 0 -7 5 -4 10 3 6 1 10 -4 10 -6 0 -11 -3 -11 -7 0 -5 -12
-9 -27 -10 -15 0 -29 -6 -31 -12 -2 -6 -8 -9 -12 -6 -11 7 -108 -24 -116 -36
-3 -5 -10 -6 -16 -3 -8 5 -9 1 -4 -11 5 -14 4 -15 -7 -7 -9 8 -28 4 -70 -15
-48 -22 -56 -29 -53 -48 3 -14 -1 -22 -10 -22 -9 0 -11 4 -4 12 10 12 4 25
-12 25 -5 0 -6 -4 -3 -10 3 -6 -1 -7 -9 -4 -10 4 -16 1 -16 -7 0 -7 -3 -9 -6
-6 -4 4 -19 -2 -33 -12 -14 -10 -34 -21 -44 -24 -10 -4 -15 -12 -12 -17 5 -8
11 -8 19 -1 9 8 13 7 13 -3 0 -15 -14 -16 -34 -3 -16 10 -36 -1 -28 -14 3 -5
-1 -6 -9 -3 -8 3 -23 -3 -34 -14 -11 -11 -23 -18 -26 -15 -3 3 -8 -2 -12 -11
-3 -9 -10 -14 -14 -11 -5 3 -14 0 -22 -7 -7 -7 -39 -32 -70 -56 -32 -23 -58
-47 -58 -53 0 -6 -4 -8 -9 -5 -5 4 -21 -8 -35 -25 -14 -17 -26 -27 -26 -22 -1
4 -7 -3 -15 -17 -8 -14 -14 -22 -15 -17 0 4 -14 -6 -31 -22 -19 -18 -28 -35
-23 -42 4 -8 3 -9 -5 -5 -12 8 -68 -42 -63 -56 1 -5 -5 -8 -13 -8 -8 0 -15 -4
-15 -8 0 -5 -14 -22 -31 -40 -17 -17 -28 -36 -24 -42 4 -6 2 -9 -3 -8 -14 5
-64 -60 -56 -73 4 -7 3 -9 -3 -6 -6 4 -16 0 -23 -7 -9 -12 -7 -21 6 -43 10
-15 14 -25 9 -21 -4 4 -15 2 -24 -5 -14 -10 -14 -10 -3 5 21 26 4 44 -19 19
-10 -11 -19 -23 -19 -27 0 -3 -9 -18 -20 -34 -11 -15 -17 -30 -13 -34 3 -3 2
-6 -4 -6 -12 0 -67 -80 -56 -80 5 0 3 -4 -2 -8 -20 -14 -46 -63 -39 -74 4 -7
3 -8 -4 -4 -16 10 -15 -17 0 -32 7 -7 9 -12 5 -12 -3 0 -3 -10 2 -23 7 -19 6
-23 -10 -23 -11 0 -15 4 -9 11 10 12 8 46 -3 45 -4 0 -7 -2 -7 -5 1 -3 -6 -13
-15 -21 -12 -13 -13 -19 -4 -30 9 -12 9 -13 -3 -9 -16 6 -34 -35 -29 -65 2 -8
-1 -12 -5 -7 -4 4 -13 -5 -19 -20 -9 -20 -9 -30 -1 -35 7 -5 5 -8 -5 -8 -9 0
-20 -7 -23 -16 -4 -10 -2 -13 7 -8 6 4 9 4 5 -1 -4 -4 -2 -15 5 -24 11 -14 10
-14 -6 -2 -9 8 -21 10 -25 6 -4 -4 -2 -10 5 -12 8 -3 5 -11 -8 -24 -11 -11
-18 -27 -15 -35 3 -8 2 -14 -2 -14 -14 0 -30 -79 -18 -84 6 -2 3 -5 -6 -5 -10
-1 -18 -7 -19 -13 0 -7 -3 -22 -5 -33 -3 -11 -6 -32 -6 -47 -1 -15 -5 -25 -10
-22 -4 3 -8 -1 -8 -10 0 -8 -3 -23 -7 -33 -6 -16 -5 -17 13 -3 16 12 16 11 -2
-10 -19 -22 -31 -59 -39 -120 -1 -8 -5 -33 -9 -55 -10 -57 -13 -80 -21 -165
-4 -41 -9 -83 -11 -92 -1 -10 3 -18 9 -18 8 0 8 -3 -1 -9 -9 -5 -12 -26 -11
-59 2 -29 0 -55 -4 -58 -4 -4 -2 -13 4 -21 6 -7 7 -13 2 -13 -5 0 -8 -21 -7
-47 2 -27 3 -79 5 -118 1 -38 6 -76 12 -82 6 -9 6 -13 -2 -13 -7 0 -10 -8 -7
-17 3 -10 8 -43 11 -73 9 -72 25 -180 30 -200 1 -3 5 -29 10 -57 4 -32 12 -50
18 -46 5 3 7 2 4 -4 -5 -8 10 -90 27 -148 2 -5 5 -14 6 -20 4 -19 62 -180 75
-210 7 -16 25 -59 40 -95 163 -385 479 -772 817 -1001 268 -182 592 -303 898
-336 134 -14 448 -6 503 12 6 2 28 6 47 9 131 20 332 84 463 148 43 21 80 38
82 38 8 0 180 104 230 139 65 45 190 147 235 189 19 19 78 66 130 105 116 88
315 282 405 397 37 47 85 100 106 118 l39 34 0 -30 c0 -28 2 -29 48 -29 26 0
53 5 61 11 11 8 13 8 7 -1 -5 -9 1 -13 18 -13 l26 0 0 106 c0 106 0 107 33
143 34 38 70 84 110 139 l24 32 7 -72 c11 -120 49 -202 125 -271 47 -41 111
-76 111 -59 0 4 4 2 8 -4 7 -12 132 -35 132 -25 0 3 23 6 51 5 38 0 66 7 115
32 l65 33 -3 -27 c-3 -24 0 -27 40 -30 30 -2 42 0 42 10 0 11 2 11 9 0 4 -8
20 -12 36 -10 21 2 29 9 32 27 2 14 -2 28 -9 33 -8 4 -9 8 -2 8 7 0 11 55 11
175 0 124 -3 172 -11 168 -8 -5 -8 -3 0 8 16 20 16 82 1 72 -9 -5 -9 -3 -1 8
16 20 16 401 0 392 -8 -5 -8 -3 0 8 13 16 17 82 5 75 -4 -3 -8 1 -8 9 0 8 3
12 7 10 3 -2 6 40 7 94 l0 99 -78 1 c-69 1 -79 -1 -80 -16 0 -10 0 -95 0 -190
0 -102 -3 -175 -9 -178 -6 -3 -10 -1 -10 4 0 46 -246 64 -332 24 l-46 -21 24
65 c29 78 71 235 80 301 3 26 8 49 9 53 2 3 7 36 10 75 4 38 8 85 10 104 2 19
4 63 4 97 l1 62 33 -14 c17 -7 60 -16 95 -20 l62 -7 0 71 c0 65 -2 71 -21 71
-36 0 -84 29 -104 63 -21 34 -20 8 -25 928 l0 75 -72 -2 c-40 -1 -75 -2 -78
-3 -3 0 -6 -124 -5 -275 0 -151 -3 -272 -7 -270 -5 3 -8 10 -8 15 0 30 -118
262 -183 359 -289 435 -708 728 -1222 855 -87 22 -148 43 -180 63 -36 22 -52
27 -57 19 -5 -8 -8 -7 -8 4 0 13 -88 71 -105 69 -3 0 -19 7 -35 15 -17 9 -36
13 -42 9 -7 -4 -8 -3 -4 4 4 7 -4 14 -21 18 -15 4 -33 11 -40 16 -7 6 -15 3
-23 -9 -11 -17 -11 -17 -6 0 4 13 -2 20 -20 27 -14 6 -30 8 -35 4 -5 -3 -9 0
-9 7 0 7 -3 9 -7 6 -3 -4 -12 -2 -20 4 -10 9 -17 8 -28 -1 -9 -7 -18 -10 -22
-6 -3 3 -1 6 5 6 7 0 12 5 12 12 0 6 -3 9 -6 5 -4 -3 -22 0 -41 8 -19 8 -37
14 -41 13 -4 -1 -20 2 -36 7 -31 9 -47 -5 -41 -37 2 -10 0 -16 -5 -13 -4 3 -6
18 -4 34 5 27 2 29 -31 33 -20 2 -38 0 -41 -4 -3 -4 -11 -8 -17 -8 -8 0 -8 3
1 9 10 6 8 10 -8 14 -16 4 -20 2 -16 -9 3 -8 1 -14 -4 -14 -6 0 -10 8 -10 18
0 13 -2 14 -9 3 -7 -11 -9 -11 -14 0 -4 12 -7 11 -16 -1 -8 -11 -11 -12 -11
-2 0 7 -5 10 -10 7 -6 -4 -7 -11 -4 -17 4 -7 2 -8 -4 -4 -6 4 -9 13 -6 20 5
14 -23 15 -45 1 -9 -5 -12 -4 -8 2 3 5 0 10 -8 10 -8 0 -12 -4 -9 -9 3 -4 0
-8 -5 -8 -6 0 -11 5 -11 11 0 13 -189 9 -197 -4 -3 -5 -10 -3 -15 4 -7 10 -9
9 -5 -7 2 -12 -1 -21 -8 -21 -8 0 -11 7 -7 16 5 14 4 14 -11 2 -15 -12 -17
-12 -11 3 7 18 7 18 -24 5z m255 -28 c-10 -12 -9 -14 4 -9 9 4 16 1 16 -7 0
-10 -5 -11 -17 -5 -10 5 -20 7 -23 4 -3 -3 -8 0 -12 6 -3 6 -3 10 2 9 20 -3
27 2 13 11 -12 7 -10 9 7 7 18 -1 20 -4 10 -16z m78 -12 c-4 -5 0 -9 7 -10 10
0 10 -2 0 -6 -6 -2 -9 -10 -6 -15 4 -7 2 -8 -5 -4 -6 4 -8 12 -5 18 5 7 2 9
-8 6 -8 -4 -15 -1 -15 7 0 8 7 11 15 7 11 -4 13 -1 7 8 -5 9 -4 11 4 6 6 -4 9
-12 6 -17z m-395 -17 c-6 -2 -8 -8 -5 -12 3 -5 0 -12 -6 -16 -8 -4 -9 -3 -5 4
4 7 1 12 -6 12 -9 0 -9 3 2 10 14 9 7 14 -13 11 -5 -1 -6 3 -2 9 4 6 13 5 26
-3 10 -6 15 -13 9 -15z m71 1 c-12 -20 -14 -14 -5 12 4 9 9 14 11 11 3 -2 0
-13 -6 -23z m103 16 c3 -3 -4 -5 -14 -6 -11 -1 -20 2 -20 7 0 8 25 8 34 -1z
m436 3 c0 -5 -7 -9 -15 -9 -8 0 -15 4 -15 9 0 4 7 8 15 8 8 0 15 -4 15 -8z
m-700 -6 c0 -2 -7 -7 -16 -10 -8 -3 -12 -2 -9 4 6 10 25 14 25 6z m210 -25
c-4 -9 -9 -20 -10 -26 -1 -5 -4 -12 -7 -15 -2 -3 -4 0 -3 5 5 21 -1 29 -10 15
-7 -12 -9 -10 -7 7 1 18 4 20 16 10 12 -10 14 -9 9 4 -4 9 -1 16 7 16 10 0 11
-5 5 -16z m360 9 c0 -5 -4 -10 -10 -10 -5 0 -10 5 -10 10 0 6 5 10 10 10 6 0
10 -4 10 -10z m82 -9 c-3 -8 -1 -12 5 -8 5 3 10 0 10 -7 0 -11 -4 -12 -18 -3
-10 6 -16 14 -13 18 2 4 -2 9 -8 12 -7 3 -3 4 8 4 15 -1 20 -6 16 -16z m120
-3 c-2 -10 -6 -18 -7 -18 -1 0 -5 8 -7 18 -3 11 0 19 7 19 7 0 10 -8 7 -19z
m56 -3 c-3 -3 -9 2 -12 12 -6 14 -5 15 5 6 7 -7 10 -15 7 -18z m-862 -11 c-1
-8 -6 -17 -11 -21 -4 -4 -5 -3 -1 4 3 6 2 14 -4 18 -5 3 -10 1 -10 -6 0 -7 -3
-10 -6 -6 -9 9 3 24 19 24 8 0 14 -6 13 -13z m358 7 c-9 -9 -34 -9 -34 -1 0 5
9 8 20 7 10 -1 17 -3 14 -6z m122 -6 c-3 -23 -12 -26 -13 -5 -1 11 2 20 7 20
4 0 7 -7 6 -15z m301 -7 c-3 -8 -6 -5 -6 6 -1 11 2 17 5 13 3 -3 4 -12 1 -19z
m-901 -13 c-1 -13 -4 -27 -7 -30 -5 -4 -4 41 0 53 4 10 8 -2 7 -23z m739 15
c3 -6 -1 -7 -9 -4 -18 7 -21 14 -7 14 6 0 13 -4 16 -10z m-538 -25 c0 -22 -14
-18 -20 4 -3 13 0 18 7 15 7 -3 13 -11 13 -19z m240 0 c0 -22 -14 -18 -20 4
-3 13 0 18 7 15 7 -3 13 -11 13 -19z m-143 2 c-3 -8 -11 -14 -19 -14 -21 0
-19 15 3 20 9 3 18 5 19 6 1 0 0 -5 -3 -12z m240 0 c-3 -8 -11 -14 -19 -14
-21 0 -19 15 3 20 9 3 18 5 19 6 1 0 0 -5 -3 -12z m480 0 c-3 -8 -11 -14 -19
-14 -21 0 -19 15 3 20 9 3 18 5 19 6 1 0 0 -5 -3 -12z m59 0 c4 3 7 2 7 -4 0
-6 -8 -13 -18 -15 -12 -4 -18 1 -18 13 0 12 4 15 12 9 6 -6 14 -7 17 -3z
m-1197 -14 c-2 -9 -8 -18 -15 -19 -6 -1 -7 0 -2 2 6 3 7 12 4 20 -3 8 -1 14 5
14 6 0 9 -8 8 -17z m60 5 c5 -7 3 -8 -6 -3 -10 6 -12 4 -6 -11 5 -14 4 -16 -5
-7 -6 6 -8 16 -5 22 9 14 13 14 22 -1z m741 -3 c0 -8 -6 -16 -13 -19 -7 -3
-10 2 -7 15 6 22 20 26 20 4z m86 -4 c3 -13 0 -18 -7 -15 -7 3 -13 11 -13 19
0 22 14 18 20 -4z m80 0 c3 -13 0 -18 -7 -15 -7 3 -13 11 -13 19 0 22 14 18
20 -4z m101 11 c3 -5 -1 -9 -9 -9 -8 0 -12 4 -9 9 3 4 7 8 9 8 2 0 6 -4 9 -8z
m-910 -24 c-5 -7 -2 -9 7 -6 10 4 15 -1 15 -12 0 -11 -5 -16 -15 -12 -8 3 -12
1 -8 -5 3 -5 0 -10 -8 -10 -11 0 -12 4 -4 13 5 6 9 16 8 20 -2 14 0 24 7 24 3
0 2 -5 -2 -12z m209 -5 c-3 -7 -6 -13 -8 -13 -2 0 -5 6 -8 13 -3 8 1 14 8 14
7 0 11 -6 8 -14z m77 10 c-1 -13 -30 -48 -30 -36 0 7 5 15 10 18 6 4 8 11 5
16 -4 5 -1 9 4 9 6 0 11 -3 11 -7z m163 -10 c-3 -7 -6 -13 -8 -13 -2 0 -5 6
-8 13 -3 8 1 14 8 14 7 0 11 -6 8 -14z m77 8 c0 -6 -4 -12 -8 -15 -5 -3 -9 1
-9 9 0 8 4 15 9 15 4 0 8 -4 8 -9z m76 -14 c1 -9 -2 -15 -7 -11 -5 3 -7 9 -4
14 3 4 0 11 -5 13 -6 3 -5 4 1 3 7 -1 13 -10 15 -19z m329 13 c-3 -5 -14 -10
-23 -9 -14 0 -13 2 3 9 27 11 27 11 20 0z m152 -5 c0 -8 -4 -12 -9 -9 -5 3 -6
10 -3 15 9 13 12 11 12 -6z m-902 -4 c3 -5 2 -12 -3 -15 -5 -3 -9 1 -9 9 0 17
3 19 12 6z m917 -23 c-8 -8 -9 -4 -5 13 4 13 8 18 11 10 2 -7 -1 -18 -6 -23z
m108 11 c0 -5 -4 -9 -8 -9 -5 0 -9 7 -9 15 0 8 4 12 9 9 4 -3 8 -9 8 -15z
m-1460 1 c0 -5 -4 -10 -10 -10 -5 0 -10 5 -10 10 0 6 5 10 10 10 6 0 10 -4 10
-10z m135 0 c3 -5 1 -10 -4 -10 -6 0 -11 5 -11 10 0 6 2 10 4 10 3 0 8 -4 11
-10z m201 -5 c-1 -8 -6 -18 -11 -22 -4 -5 -5 -2 0 6 6 11 4 13 -11 8 -18 -7
-18 -7 0 8 24 18 25 18 22 0z m861 1 c0 -8 -8 -11 -21 -8 -19 5 -19 6 0 13 10
4 19 8 20 8 0 1 1 -5 1 -13z m63 4 c0 -5 -2 -10 -4 -10 -3 0 -8 5 -11 10 -3 6
-1 10 4 10 6 0 11 -4 11 -10z m136 -2 c5 -7 3 -8 -6 -3 -9 6 -12 4 -8 -7 4 -8
0 -15 -7 -15 -10 0 -11 5 -4 19 11 21 15 22 25 6z m-743 -13 c-3 -9 -8 -14
-10 -11 -3 3 -2 9 2 15 9 16 15 13 8 -4z m101 7 c2 -4 -4 -8 -14 -8 -10 0 -16
4 -14 8 3 4 9 8 14 8 5 0 11 -4 14 -8z m561 -2 c4 -6 -1 -7 -11 -3 -10 4 -15
2 -11 -4 3 -5 0 -10 -8 -10 -11 0 -12 4 -4 14 14 15 26 17 34 3z m-1372 -21
c-4 -15 -8 -17 -14 -8 -6 11 4 28 18 29 0 0 -1 -9 -4 -21z m114 15 c-3 -3 -12
-4 -19 -1 -8 3 -5 6 6 6 11 1 17 -2 13 -5z m125 -16 c-2 -10 -9 -18 -15 -18
-6 0 -7 3 -4 7 4 3 3 11 -3 17 -6 8 -3 12 9 12 12 0 17 -6 13 -18z m215 -3 c0
-8 -5 -11 -10 -8 -6 4 -8 0 -4 -10 4 -10 2 -14 -7 -11 -7 3 -13 11 -13 19 0 8
4 12 8 9 4 -2 10 0 14 6 9 14 12 13 12 -5z m63 -6 c0 -4 -6 -11 -12 -15 -7 -4
-10 -4 -6 1 4 4 0 14 -10 21 -15 12 -15 12 6 7 12 -3 22 -9 22 -14z m1035 9
c4 4 2 -3 -4 -15 -6 -13 -14 -23 -17 -23 -3 0 -2 5 1 10 4 6 1 19 -7 28 -11
15 -11 15 3 5 9 -7 19 -9 24 -5z m-1191 -10 c-3 -4 -9 -8 -15 -8 -5 0 -9 4 -9
8 0 5 7 9 15 9 8 0 12 -4 9 -9z m1121 3 c-9 -8 -36 -10 -30 -2 2 4 11 8 20 8
8 0 13 -3 10 -6z m32 -16 c0 -8 -4 -12 -9 -9 -5 3 -6 10 -3 15 9 13 12 11 12
-6z m117 6 c3 -5 -1 -11 -9 -14 -9 -4 -12 -1 -8 9 6 16 10 17 17 5z m-1074
-15 c-7 -7 -13 -7 -20 0 -6 6 -3 10 10 10 13 0 16 -4 10 -10z m-503 -18 c-3
-8 -6 -5 -6 6 -1 11 2 17 5 13 3 -3 4 -12 1 -19z m128 4 c-3 -3 -11 0 -18 7
-9 10 -8 11 6 5 10 -3 15 -9 12 -12z m1412 3 c0 -8 -4 -12 -9 -9 -5 3 -6 10
-3 15 9 13 12 11 12 -6z m-1680 -1 c-2 -3 -17 -7 -33 -10 -17 -2 -24 -1 -17 4
13 8 58 14 50 6z m347 -2 c3 -5 -1 -9 -9 -9 -8 0 -12 4 -9 9 3 4 7 8 9 8 2 0
6 -4 9 -8z m50 -17 c1 -9 9 -21 17 -26 9 -5 10 -9 2 -9 -6 0 -15 6 -20 13 -9
15 -16 53 -7 45 3 -3 7 -14 8 -23z m166 15 c0 -5 -2 -10 -4 -10 -3 0 -8 5 -11
10 -3 6 -1 10 4 10 6 0 11 -4 11 -10z m-105 -10 c3 -6 -1 -7 -9 -4 -18 7 -21
14 -7 14 6 0 13 -4 16 -10z m-452 -20 c-6 -21 -25 -28 -20 -7 2 10 16 26 24
27 0 0 -1 -9 -4 -20z m277 11 c0 -5 -8 -15 -17 -22 -16 -12 -17 -12 -6 2 7 9
10 19 6 22 -3 4 -1 7 5 7 7 0 12 -4 12 -9z m1460 -1 c0 -5 -2 -10 -4 -10 -3 0
-8 5 -11 10 -3 6 -1 10 4 10 6 0 11 -4 11 -10z m-1629 -33 c-10 -9 -11 -8 -5
6 3 10 9 15 12 12 3 -3 0 -11 -7 -18z m-155 -29 c1 -15 -3 -28 -9 -28 -6 0 -8
3 -4 6 3 3 2 16 -3 28 -6 16 -5 23 3 23 7 0 12 -13 13 -29z m214 27 c0 -1 -8
-10 -19 -19 -16 -15 -19 -15 -24 -2 -4 11 -1 13 10 9 10 -4 14 -2 10 4 -3 5 0
10 8 10 8 0 15 -1 15 -2z m64 -7 c-5 -7 -2 -9 9 -5 11 4 14 2 10 -9 -4 -11 -9
-12 -19 -3 -12 10 -11 29 2 29 3 0 2 -5 -2 -12z m59 -18 c3 -11 1 -17 -4 -14
-6 3 -17 0 -26 -8 -13 -10 -12 -6 2 14 24 33 22 32 28 8z m-411 -8 c4 -12 -1
-18 -13 -18 -12 0 -15 4 -9 12 6 6 7 14 3 17 -3 4 -2 7 4 7 6 0 13 -8 15 -18z
m173 9 c-9 -8 -36 -10 -30 -2 2 4 11 8 20 8 8 0 13 -3 10 -6z m64 -9 c7 -14 6
-19 -4 -19 -7 0 -11 7 -7 15 4 11 1 13 -8 7 -9 -5 -11 -4 -6 3 10 16 14 15 25
-6z m81 4 c-7 -7 -13 -7 -20 0 -6 6 -3 10 10 10 13 0 16 -4 10 -10z m-360 -37
c0 -3 -9 -9 -19 -12 -13 -3 -18 0 -15 7 5 13 34 18 34 5z m96 -8 c1 -6 0 -7
-2 -2 -3 5 -17 7 -32 5 -19 -3 -23 -2 -13 5 18 12 44 7 47 -8z m141 12 c-4 -3
-3 -11 3 -17 6 -8 3 -12 -9 -12 -12 0 -17 6 -13 18 2 10 9 18 15 18 6 0 7 -3
4 -7z m157 -5 c-3 -5 -10 -6 -15 -3 -5 4 -9 1 -9 -6 0 -7 -3 -10 -6 -6 -9 9 3
24 20 24 8 0 13 -4 10 -9z m-460 -7 c4 -5 -3 -7 -14 -4 -23 6 -26 13 -6 13 8
0 17 -4 20 -9z m-60 -53 c-5 -7 -2 -9 8 -6 8 4 15 0 15 -8 0 -19 -30 -1 -33
20 -1 9 2 14 7 10 5 -3 6 -10 3 -16z m322 -13 c-1 -8 -6 -18 -11 -22 -4 -5 -5
-2 0 6 6 10 4 13 -7 9 -8 -4 -15 -1 -15 7 0 8 7 11 15 7 11 -4 13 -1 7 8 -5 8
-4 11 3 7 5 -4 9 -14 8 -22z m72 0 c-3 -3 -9 2 -12 12 -6 14 -5 15 5 6 7 -7
10 -15 7 -18z m-313 -15 c-3 -4 0 -11 5 -13 6 -3 5 -4 -2 -2 -7 1 -12 8 -10
15 2 7 -3 10 -11 7 -7 -3 -14 1 -14 8 0 10 5 11 19 4 10 -6 16 -14 13 -19z
m182 16 c0 -9 -6 -12 -16 -8 -13 5 -14 3 -4 -9 10 -12 8 -15 -10 -16 -17 -2
-19 0 -7 7 14 9 7 14 -13 11 -5 -1 -6 3 -2 9 3 6 10 8 14 6 4 -3 13 -1 21 5 8
5 15 9 16 9 0 0 1 -6 1 -14z m-330 -32 c-3 -3 -12 -4 -19 -1 -8 3 -5 6 6 6 11
1 17 -2 13 -5z m53 -12 c0 -4 -10 -9 -22 -9 -18 -2 -20 0 -8 7 18 12 30 13 30
2z m60 -1 c0 -6 -4 -12 -8 -15 -5 -3 -9 1 -9 9 0 8 4 15 9 15 4 0 8 -4 8 -9z
m111 -8 c12 -16 12 -17 -2 -6 -9 7 -19 10 -22 6 -4 -3 -7 -1 -7 5 0 17 16 15
31 -5z m143 8 c-9 -9 -34 -9 -34 -1 0 5 9 8 20 7 10 -1 17 -3 14 -6z m-372
-30 c-3 -8 -1 -12 5 -8 5 3 10 0 10 -8 0 -11 -4 -12 -13 -4 -7 6 -18 8 -23 5
-5 -4 -13 -1 -17 5 -5 8 -3 9 6 4 9 -6 12 -4 8 6 -4 10 1 15 12 15 11 0 16 -5
12 -15z m78 9 c-14 -9 -6 -15 15 -10 6 1 7 -1 3 -5 -3 -4 -10 -7 -15 -7 -4 0
-17 -4 -28 -10 -20 -9 -20 -9 -1 6 11 9 16 16 12 16 -4 0 -4 5 -1 10 3 6 12
10 18 10 7 0 6 -4 -3 -10z m116 -12 c1 -8 -2 -22 -7 -29 -7 -10 -8 -6 -5 13 2
15 0 29 -5 32 -5 2 -4 3 2 2 7 -1 13 -9 15 -18z m127 7 c-3 -9 -8 -14 -10 -11
-3 3 -2 9 2 15 9 16 15 13 8 -4z m-50 -30 c-7 -21 -12 -19 -10 4 0 11 5 18 9
15 4 -3 5 -11 1 -19z m-317 -10 c-3 -23 -12 -26 -13 -5 -1 11 2 20 7 20 4 0 7
-7 6 -15z m280 -27 c1 -8 -4 -15 -12 -15 -11 0 -11 3 -1 16 10 12 9 14 -4 9
-9 -4 -16 -1 -16 8 0 18 30 2 33 -18z m-124 4 c3 -11 0 -19 -7 -19 -7 0 -10 8
-7 19 2 10 6 18 7 18 1 0 5 -8 7 -18z m22 2 c3 -8 2 -12 -4 -9 -6 3 -10 10
-10 16 0 14 7 11 14 -7z m19 -29 c-3 -9 -8 -14 -10 -11 -3 3 -2 9 2 15 9 16
15 13 8 -4z m-263 -20 c0 -1 -8 -10 -19 -19 -16 -15 -19 -15 -24 -2 -4 11 -1
13 10 9 10 -4 14 -2 10 4 -3 5 0 10 8 10 8 0 15 -1 15 -2z m64 -7 c-5 -7 -2
-9 9 -5 11 4 14 2 10 -9 -4 -11 -9 -12 -19 -3 -12 10 -11 29 2 29 3 0 2 -5 -2
-12z m123 6 c-3 -3 -12 -4 -19 -1 -8 3 -5 6 6 6 11 1 17 -2 13 -5z m35 -12
c-4 -11 -1 -13 8 -7 9 5 11 4 6 -3 -11 -17 -23 -15 -28 6 -3 11 0 19 7 19 8 0
11 -7 7 -15z m-274 -23 c9 -13 9 -16 -3 -16 -8 0 -11 5 -8 10 4 7 -1 8 -12 3
-15 -5 -16 -4 -5 9 7 9 13 14 14 13 1 -2 7 -10 14 -19z m82 7 c-7 -7 -13 -7
-20 0 -6 6 -3 10 10 10 13 0 16 -4 10 -10z m150 8 c0 -8 -19 -13 -24 -6 -3 5
1 9 9 9 8 0 15 -2 15 -3z m-77 -17 c3 -8 -1 -14 -8 -14 -7 0 -11 6 -8 14 3 7
6 13 8 13 2 0 5 -6 8 -13z m-196 -32 c0 -8 -6 -16 -13 -19 -7 -3 -10 2 -7 15
6 22 20 26 20 4z m97 -1 c3 -7 -2 -10 -15 -7 -22 6 -26 20 -4 20 8 0 16 -6 19
-13z m52 4 c4 -7 3 -8 -4 -4 -7 4 -12 2 -12 -5 0 -7 -3 -10 -6 -6 -6 5 3 27
11 27 2 0 7 -5 11 -12z m96 -6 c4 -12 -1 -18 -13 -18 -12 0 -15 4 -9 12 6 6 7
14 3 17 -3 4 -2 7 4 7 6 0 13 -8 15 -18z m-288 -10 c3 -5 -1 -9 -9 -9 -8 0
-12 4 -9 9 3 4 7 8 9 8 2 0 6 -4 9 -8z m-43 -35 c-10 -9 -11 -8 -5 6 3 10 9
15 12 12 3 -3 0 -11 -7 -18z m94 13 c-3 -5 -12 -10 -18 -10 -7 0 -6 4 3 10 19
12 23 12 15 0z m191 -15 c-1 -13 -4 -27 -7 -30 -5 -4 -4 41 0 53 4 10 8 -2 7
-23z m-155 -13 c-7 -2 -18 1 -23 6 -8 8 -4 9 13 5 13 -4 18 -8 10 -11z m76 11
c-4 -3 -1 -13 6 -22 11 -14 10 -14 -5 -2 -21 15 -23 31 -6 31 6 0 8 -3 5 -7z
m126 0 c-7 -2 -19 -2 -25 0 -7 3 -2 5 12 5 14 0 19 -2 13 -5z m-338 -23 c3 -6
-1 -7 -9 -4 -18 7 -21 14 -7 14 6 0 13 -4 16 -10z m72 -4 c0 -8 -8 -11 -21 -8
-19 5 -19 6 0 13 10 4 19 8 20 8 0 1 1 -5 1 -13z m63 -1 c0 -1 -8 -5 -18 -7
-11 -3 -19 0 -19 7 0 7 8 10 19 7 10 -2 18 -6 18 -7z m39 -12 c-3 -19 2 -27
10 -15 7 11 9 11 14 -1 3 -8 0 -14 -6 -13 -21 3 -38 17 -32 27 7 11 15 12 14
2z m76 -2 c3 -6 -3 -14 -13 -20 -14 -7 -19 -6 -19 4 0 7 7 11 15 7 10 -3 13
-1 8 6 -4 7 -5 12 -2 12 3 0 7 -4 11 -9z m-292 -26 c-3 -9 -8 -14 -10 -11 -3
3 -2 9 2 15 9 16 15 13 8 -4z m134 -5 c-1 -21 -10 -18 -13 5 -1 8 2 15 6 15 5
0 8 -9 7 -20z m176 5 c-3 -9 -8 -14 -10 -11 -3 3 -2 9 2 15 9 16 15 13 8 -4z
m-255 -29 c19 3 23 2 13 -5 -18 -12 -44 -7 -47 8 -1 6 0 7 2 2 3 -5 17 -7 32
-5z m-41 -23 c-4 -3 -2 -11 3 -18 7 -8 6 -12 -3 -12 -7 0 -14 9 -14 19 -1 10
3 18 9 18 6 0 8 -3 5 -7z m85 0 c-6 -3 -10 -8 -8 -12 3 -4 -3 -12 -13 -18 -14
-9 -18 -8 -18 3 0 7 5 10 10 7 6 -4 8 0 5 8 -4 10 1 15 16 16 11 0 15 -1 8 -4z
m91 -22 c3 -13 1 -18 -9 -14 -7 2 -10 11 -7 19 7 19 10 18 16 -5z m20 -41 c-3
-12 -8 -19 -11 -16 -5 6 5 36 12 36 2 0 2 -9 -1 -20z m-156 3 c-4 -3 -3 -11 3
-17 6 -8 3 -12 -9 -12 -12 0 -17 6 -13 18 2 10 9 18 15 18 6 0 7 -3 4 -7z m80
-8 c0 -8 -6 -16 -13 -19 -7 -3 -10 2 -7 15 6 22 20 26 20 4z m-190 -21 c-3 -3
-12 -4 -19 -1 -8 3 -5 6 6 6 11 1 17 -2 13 -5z m153 2 c0 -2 -8 -10 -17 -17
-16 -13 -17 -12 -4 4 13 16 21 21 21 13z m-200 -14 c0 -5 -7 -9 -15 -9 -8 0
-12 4 -9 9 3 4 9 8 15 8 5 0 9 -4 9 -8z m90 -2 c-8 -5 -19 -10 -25 -10 -5 0
-3 5 5 10 8 5 20 10 25 10 6 0 3 -5 -5 -10z m155 0 c-3 -5 -12 -10 -18 -10 -7
0 -6 4 3 10 19 12 23 12 15 0z m-123 -29 c-4 -10 -1 -12 8 -6 9 5 11 4 6 -4
-4 -6 -12 -9 -17 -5 -5 3 -16 1 -23 -5 -9 -8 -13 -7 -13 4 0 8 5 11 10 8 6 -4
8 0 5 8 -4 10 1 15 12 15 11 0 16 -5 12 -15z m-85 -25 c0 -7 -6 -13 -13 -13
-7 0 -10 7 -6 15 4 11 1 13 -8 7 -8 -5 -11 -4 -6 3 8 14 33 5 33 -12z m-67
-19 c0 -2 -9 -12 -20 -22 -24 -21 -27 -14 -4 9 15 15 24 20 24 13z m32 -39
c-2 -10 -9 -18 -15 -18 -6 0 -7 3 -4 7 4 3 3 11 -3 17 -6 8 -3 12 9 12 12 0
17 -6 13 -18z m-92 -13 c11 -13 10 -14 -4 -9 -9 3 -16 10 -16 15 0 13 6 11 20
-6z m43 -22 c-3 -7 0 -19 6 -26 8 -10 7 -14 -4 -14 -8 0 -11 5 -8 10 4 6 0 8
-9 5 -8 -4 -15 0 -15 8 0 7 5 10 10 7 6 -4 8 0 5 9 -4 8 -1 15 7 15 7 0 11 -6
8 -14z m164 10 c-4 -3 0 -14 8 -23 13 -14 12 -16 -3 -16 -11 0 -18 9 -18 23
-1 13 3 23 9 23 6 0 7 -3 4 -7z m54 -16 c-10 -9 -11 -8 -5 6 3 10 9 15 12 12
3 -3 0 -11 -7 -18z m-131 -9 c0 -4 -4 -8 -9 -8 -6 0 -12 4 -15 8 -3 5 1 9 9 9
8 0 15 -4 15 -9z m-124 -46 c-2 -9 -8 -17 -15 -18 -6 -1 -7 0 -2 2 5 3 7 17 5
32 -3 19 -2 23 5 13 5 -7 8 -21 7 -29z m157 15 c4 3 7 2 7 -4 0 -6 -8 -13 -18
-15 -12 -4 -18 1 -18 13 0 12 4 15 12 9 6 -6 14 -7 17 -3z m-59 -13 c3 -7 -2
-10 -15 -7 -22 6 -26 20 -4 20 8 0 16 -6 19 -13z m-140 -13 c3 -5 -1 -14 -8
-20 -10 -9 -16 -9 -21 -1 -4 6 -3 10 2 9 20 -3 27 2 13 11 -9 6 -10 10 -3 10
6 0 14 -4 17 -9z m80 -22 c3 -2 -9 -5 -26 -6 -18 0 -26 2 -18 7 13 8 36 8 44
-1z m13 -25 c-3 -3 -12 -4 -19 -1 -8 3 -5 6 6 6 11 1 17 -2 13 -5z m113 -9 c0
-11 -29 -11 -33 -1 -4 10 1 12 14 9 10 -3 19 -7 19 -8z m-183 -9 c0 -8 -6 -12
-15 -9 -11 5 -11 7 0 14 7 5 13 9 14 9 0 0 1 -6 1 -14z m63 -1 c0 -1 -8 -5
-18 -7 -11 -3 -19 0 -19 7 0 7 8 10 19 7 10 -2 18 -6 18 -7z m-90 -30 c-7 -8
-17 -15 -23 -15 -6 0 -2 7 9 15 25 19 30 19 14 0z m147 -7 c-3 -8 -6 -5 -6 6
-1 11 2 17 5 13 3 -3 4 -12 1 -19z m-81 0 c3 -4 -1 -5 -10 -4 -8 1 -18 5 -22
8 -3 4 1 5 10 4 8 -1 18 -5 22 -8z m66 -6 c3 -11 0 -19 -7 -19 -7 0 -10 8 -7
19 2 10 6 18 7 18 1 0 5 -8 7 -18z m-200 -20 c-3 -9 -1 -13 5 -9 5 3 10 0 10
-8 0 -17 -14 -10 -26 14 -7 13 -6 18 4 18 7 0 11 -7 7 -15z m136 -4 c-5 -13
-56 -19 -63 -8 -3 4 9 6 25 5 17 -1 30 1 30 6 0 5 3 9 6 9 3 0 4 -5 2 -12z
m19 -18 c-2 -11 -6 -22 -9 -26 -4 -3 -5 2 -3 13 2 10 4 21 4 26 1 4 3 7 6 7 3
0 4 -9 2 -20z m71 -25 c-3 -3 -9 2 -12 12 -6 14 -5 15 5 6 7 -7 10 -15 7 -18z
m-164 -4 c15 -17 15 -19 1 -25 -10 -3 -14 -2 -10 5 4 5 1 16 -5 24 -18 22 -6
18 14 -4z m-30 1 c3 -5 -1 -9 -9 -9 -8 0 -12 4 -9 9 3 4 7 8 9 8 2 0 6 -4 9
-8z m167 -5 c-6 -8 -8 -16 -5 -19 3 -3 1 -9 -4 -12 -6 -3 -9 0 -8 6 2 16 15
38 23 38 3 0 0 -6 -6 -13z m-101 -21 c0 -2 -8 -10 -17 -17 -16 -13 -17 -12 -4
4 13 16 21 21 21 13z m41 -13 c13 -16 12 -17 -3 -4 -10 7 -18 15 -18 17 0 8 8
3 21 -13z m-23 -16 c8 -10 6 -13 -7 -13 -11 0 -17 6 -14 13 3 7 6 13 8 13 1 0
7 -6 13 -13z m-118 -27 c0 -5 -2 -10 -4 -10 -3 0 -8 5 -11 10 -3 6 -1 10 4 10
6 0 11 -4 11 -10z m81 -23 c-6 -8 -8 -16 -5 -20 3 -3 -2 -4 -13 -2 -10 1 -27
-5 -38 -14 -20 -16 -20 -16 -1 6 10 13 22 20 26 18 4 -3 13 2 20 10 7 8 15 15
17 15 3 0 0 -6 -6 -13z m49 8 c0 -1 -10 -10 -22 -21 -14 -12 -18 -13 -10 -3 6
9 10 18 7 21 -3 2 2 5 10 5 8 0 15 -1 15 -2z m-158 -20 c2 3 5 -2 5 -10 0 -19
0 -19 -23 7 -12 14 -13 18 -3 10 9 -6 18 -10 21 -7z m187 2 c-2 -1 -13 -9 -24
-17 -19 -14 -19 -14 -6 3 7 9 18 17 24 17 6 0 8 -1 6 -3z m-239 -21 c0 -2 -7
-7 -16 -10 -8 -3 -12 -2 -9 4 6 10 25 14 25 6z m39 -30 c-3 -3 -11 5 -18 17
-13 21 -12 21 5 5 10 -10 16 -20 13 -22z m101 20 c0 -2 -8 -10 -17 -17 -16
-13 -17 -12 -4 4 13 16 21 21 21 13z m27 -14 c-10 -10 -14 -22 -10 -25 3 -4 1
-7 -5 -7 -7 0 -12 3 -12 7 0 8 31 43 38 43 3 0 -2 -8 -11 -18z m33 -16 c0 -2
-7 -7 -16 -10 -8 -3 -12 -2 -9 4 6 10 25 14 25 6z m-190 -21 c-7 -8 -17 -15
-23 -15 -6 0 -2 7 9 15 25 19 30 19 14 0z m107 -13 c0 -10 -6 -19 -13 -19 -9
0 -9 5 -1 19 7 10 13 18 14 18 1 0 1 -8 0 -18z m103 12 c0 -8 -19 -13 -24 -6
-3 5 1 9 9 9 8 0 15 -2 15 -3z m-223 -69 c0 -8 -4 -12 -9 -9 -4 3 -8 9 -8 15
0 5 4 9 8 9 5 0 9 -7 9 -15z m126 3 c-6 -7 -9 -21 -8 -31 2 -9 0 -15 -5 -12
-13 8 1 55 17 55 3 0 1 -6 -4 -12z m37 2 c0 -5 -5 -10 -11 -10 -5 0 -7 5 -4
10 3 6 8 10 11 10 2 0 4 -4 4 -10z m-204 -25 c-1 -8 -5 -17 -8 -21 -5 -4 -4
16 1 34 3 9 9 -1 7 -13z m104 6 c0 -6 -4 -12 -8 -15 -5 -3 -9 1 -9 9 0 8 4 15
9 15 4 0 8 -4 8 -9z m46 -43 c3 -4 -1 -5 -10 -4 -8 1 -18 5 -22 8 -3 4 1 5 10
4 8 -1 18 -5 22 -8z m-21 -98 c3 -6 -1 -7 -9 -4 -18 7 -21 14 -7 14 6 0 13 -4
16 -10z m49 -2 c-3 -4 -11 -5 -19 -1 -21 7 -19 12 4 10 11 0 18 -5 15 -9z
m-97 -173 c0 -8 -4 -12 -9 -9 -5 3 -6 10 -3 15 9 13 12 11 12 -6z m53 -1 c0
-8 -19 -13 -24 -6 -3 5 1 9 9 9 8 0 15 -2 15 -3z m-113 -53 c0 -11 -5 -18 -9
-15 -4 3 -5 11 -1 19 7 21 12 19 10 -4z m-33 -9 c3 -5 -1 -9 -9 -9 -8 0 -12 4
-9 9 3 4 7 8 9 8 2 0 6 -4 9 -8z m76 -2 c0 -5 -5 -10 -11 -10 -5 0 -7 5 -4 10
3 6 8 10 11 10 2 0 4 -4 4 -10z m-164 -45 c-1 -8 -5 -17 -8 -21 -5 -4 -4 16 1
34 3 9 9 -1 7 -13z m118 -37 c-3 -4 -11 -5 -19 -1 -21 7 -19 12 4 10 11 0 18
-5 15 -9z m61 3 c-9 -8 -36 -10 -30 -2 2 4 11 8 20 8 8 0 13 -3 10 -6z m-142
-26 c4 -8 3 -16 -1 -19 -4 -3 -9 4 -9 15 -2 23 3 25 10 4z m4 -60 c0 -8 -4
-12 -9 -9 -5 3 -6 10 -3 15 9 13 12 11 12 -6z m104 -52 c13 -16 12 -17 -3 -4
-10 7 -18 15 -18 17 0 8 8 3 21 -13z m-41 -437 c0 -3 -4 -8 -10 -11 -5 -3 -10
-1 -10 4 0 6 5 11 10 11 6 0 10 -2 10 -4z m4872 -355 c15 -6 41 -23 57 -39
l30 -28 0 -236 c0 -230 -1 -236 -22 -255 -54 -48 -160 -60 -253 -29 -73 24
-131 83 -149 151 -5 17 -10 37 -12 45 -6 23 -6 142 1 174 3 16 18 54 33 85 15
31 26 60 25 64 -1 5 2 6 7 3 12 -8 61 40 52 50 -3 4 -1 4 5 1 6 -3 33 2 59 12
51 19 120 20 167 2z"/>
<path d="M7768 4635 c-2 -2 -28 -5 -58 -6 -88 -4 -182 -46 -254 -112 -14 -13
-26 -29 -26 -35 0 -5 -6 -12 -13 -15 -16 -6 -56 -87 -72 -146 -16 -61 -20
-236 -6 -226 7 4 8 0 5 -10 -16 -42 60 -176 135 -238 72 -59 225 -106 280 -85
16 5 20 4 15 -4 -4 -6 -3 -8 3 -5 5 3 32 9 59 12 27 4 68 13 92 21 23 8 49 14
57 14 8 0 15 5 15 10 0 6 6 10 13 10 6 0 20 7 29 14 17 12 17 16 2 45 -8 17
-20 31 -26 31 -6 0 -8 3 -5 6 3 4 2 15 -3 24 -9 17 -13 16 -62 -11 -29 -16
-61 -29 -70 -29 -10 0 -18 -3 -18 -8 0 -7 -139 -7 -170 0 -58 14 -143 79 -156
120 -3 10 -9 18 -13 18 -4 0 -8 6 -8 13 -1 6 -6 36 -12 66 -6 31 -7 59 -3 63
5 5 149 9 320 8 l310 0 6 27 c13 65 3 187 -15 199 -5 3 -9 12 -9 21 0 16 -52
87 -85 115 -11 10 -26 15 -33 13 -7 -3 -11 -1 -8 4 6 9 -22 37 -33 34 -3 0
-22 5 -40 13 -19 8 -41 12 -48 10 -7 -3 -13 -1 -13 5 0 6 -6 9 -12 6 -7 -2
-25 -1 -40 4 -14 4 -28 6 -30 4z m11 -132 c50 -3 123 -35 153 -67 23 -24 42
-67 51 -113 l7 -33 -246 0 -245 0 4 23 c6 36 34 94 57 117 30 30 108 70 137
70 16 0 22 4 17 12 -5 7 -3 8 7 3 7 -5 33 -10 58 -12z"/>
<path d="M8705 4632 c-45 -4 -105 -24 -99 -33 3 -5 -1 -6 -9 -3 -17 6 -80 -44
-71 -57 3 -5 1 -8 -4 -7 -5 2 -19 -8 -31 -22 l-21 -25 4 43 c3 28 1 40 -6 36
-7 -4 -7 -1 0 13 6 10 8 23 4 29 -6 7 -103 11 -148 5 -11 -1 -13 -79 -1 -98 4
-6 3 -14 -1 -17 -10 -6 -10 -122 0 -132 4 -4 3 -15 -3 -26 -7 -13 -7 -23 0
-32 6 -7 8 -16 4 -20 -12 -12 -10 -136 2 -136 5 0 3 -5 -5 -10 -13 -9 -13 -10
0 -10 9 0 11 -3 5 -8 -12 -8 -13 -22 -3 -38 4 -6 4 -14 0 -18 -11 -12 -9 -130
3 -138 7 -5 6 -8 -1 -8 -12 0 -12 -69 0 -88 3 -6 2 -13 -3 -16 -5 -4 -8 -14
-7 -24 2 -14 15 -17 79 -19 59 -1 77 2 81 13 4 10 2 12 -6 8 -7 -5 -8 -3 -3 7
5 7 10 122 10 254 1 252 6 293 36 337 11 14 19 30 19 35 1 11 75 66 97 71 38
8 104 3 132 -11 26 -13 30 -13 35 0 4 8 3 20 -1 25 -3 7 -1 8 5 4 7 -4 12 -2
12 4 0 6 9 30 20 52 11 23 19 42 17 44 -7 6 -116 19 -142 16z"/>
<path d="M4965 2716 c-16 -6 -32 -13 -35 -16 -3 -3 -11 -6 -18 -8 -27 -5 -63
-35 -58 -48 3 -7 0 -11 -7 -9 -7 3 -20 -11 -29 -30 -23 -46 -34 -115 -19 -115
6 0 11 -5 11 -11 0 -5 -5 -7 -12 -3 -8 5 -9 0 -4 -17 4 -13 8 -28 10 -34 15
-54 30 -94 35 -91 3 2 7 -7 7 -20 2 -31 122 -268 179 -353 58 -86 127 -159
167 -176 28 -11 37 -11 59 1 45 23 54 69 53 254 -1 156 -15 258 -59 440 -2 8
-4 21 -4 28 -1 7 -6 10 -13 6 -6 -4 -8 -3 -4 4 7 12 -15 92 -26 92 -5 0 -8 7
-8 15 0 21 -38 57 -52 49 -7 -4 -8 -3 -4 4 8 14 -30 36 -46 26 -7 -5 -8 -3 -3
6 5 9 2 10 -14 5 -14 -4 -21 -2 -21 7 0 10 -3 9 -10 -2 -5 -8 -10 -10 -10 -5
0 14 -28 15 -65 1z m47 -28 c-2 -10 -9 -18 -15 -18 -6 0 -7 3 -4 7 4 3 3 11
-3 17 -6 8 -3 12 9 12 12 0 17 -6 13 -18z m-48 -29 c-3 -5 -11 -9 -17 -9 -7 0
-6 4 3 10 14 9 7 14 -13 11 -5 -1 -6 3 -2 9 5 8 11 8 21 -1 7 -6 11 -15 8 -20z
m-38 -14 c-1 -8 -5 -17 -8 -21 -5 -4 -4 16 1 34 3 9 9 -1 7 -13z m60 -7 c5 -7
3 -8 -6 -3 -10 6 -12 4 -6 -11 5 -14 4 -16 -5 -7 -6 6 -8 16 -5 22 9 14 13 14
22 -1z m61 -10 c1 -10 -3 -18 -9 -18 -6 0 -8 3 -5 7 4 3 2 11 -3 18 -7 8 -6
12 3 12 7 0 14 -9 14 -19z m83 7 c0 -2 -9 -3 -19 -2 -11 0 -18 5 -15 9 4 6 34
0 34 -7z m48 -10 c-3 -3 -9 2 -12 12 -6 14 -5 15 5 6 7 -7 10 -15 7 -18z
m-286 -13 c-4 -11 -1 -13 9 -7 8 5 11 4 6 0 -14 -16 -36 -14 -30 3 5 11 3 13
-7 7 -8 -5 -11 -4 -7 2 10 16 36 11 29 -5z m233 -1 c3 -5 0 -13 -6 -17 -7 -4
-9 -3 -5 4 3 5 0 13 -6 15 -9 4 -10 6 -1 6 6 1 14 -3 18 -8z m59 -17 c3 -8 2
-12 -4 -9 -6 3 -10 10 -10 16 0 14 7 11 14 -7z m-342 -24 c-12 -10 -19 -20
-17 -24 3 -3 2 -4 -2 -1 -15 11 -11 34 5 28 9 -4 13 -2 9 4 -3 5 1 10 10 10
13 0 12 -4 -5 -17z m164 -15 c-1 -8 -5 -17 -8 -21 -5 -4 -4 16 1 34 3 9 9 -1
7 -13z m79 5 c3 -5 1 -10 -4 -10 -6 0 -11 5 -11 10 0 6 2 10 4 10 3 0 8 -4 11
-10z m85 0 c0 -4 -8 -7 -17 -5 -10 1 -27 -5 -38 -14 -19 -16 -20 -15 -3 4 17
21 58 31 58 15z m31 -7 c13 -16 12 -17 -3 -4 -17 13 -22 21 -14 21 2 0 10 -8
17 -17z m-231 -58 c0 -5 -5 -3 -10 5 -5 8 -10 20 -10 25 0 6 5 3 10 -5 5 -8
10 -19 10 -25z m84 26 c-7 -8 -54 -9 -49 -1 2 3 15 6 29 6 14 0 23 -2 20 -5z
m136 0 c0 -6 -4 -12 -8 -15 -5 -3 -9 1 -9 9 0 8 4 15 9 15 4 0 8 -4 8 -9z
m-267 -28 c-3 -7 -6 -13 -8 -13 -2 0 -5 6 -8 13 -3 8 1 14 8 14 7 0 11 -6 8
-14z m104 -6 c0 -8 -6 -14 -14 -14 -9 0 -10 4 -2 14 6 7 12 13 14 13 1 0 2 -6
2 -13z m-175 -24 c-6 -2 -10 -9 -7 -13 3 -5 1 -11 -4 -14 -7 -5 -8 11 -2 32 1
1 7 2 14 1 9 0 9 -2 -1 -6z m338 3 c0 -3 -4 -8 -10 -11 -5 -3 -10 -1 -10 4 0
6 5 11 10 11 6 0 10 -2 10 -4z m-301 -19 c-2 -1 -13 -9 -24 -17 -19 -14 -19
-14 -6 3 7 9 18 17 24 17 6 0 8 -1 6 -3z m3 -30 c-6 -7 -9 -26 -6 -42 3 -16 3
-27 -1 -24 -19 19 -9 79 12 79 3 0 1 -6 -5 -13z m178 9 c0 -3 -4 -8 -10 -11
-5 -3 -10 -1 -10 4 0 6 5 11 10 11 6 0 10 -2 10 -4z m75 -5 c3 -5 2 -12 -3
-15 -5 -3 -9 1 -9 9 0 17 3 19 12 6z m-294 -24 c-6 -8 -7 -18 -3 -22 4 -5 1
-5 -6 -1 -10 6 -10 11 -1 22 6 8 14 14 16 14 3 0 0 -6 -6 -13z m253 5 c3 -5
-1 -9 -9 -9 -8 0 -12 4 -9 9 3 4 7 8 9 8 2 0 6 -4 9 -8z"/>
<path d="M3913 2523 c-3 -6 -12 -9 -21 -5 -15 5 -16 4 -2 -13 14 -17 14 -18
-8 -6 -23 12 -47 6 -37 -10 4 -5 0 -9 -7 -9 -20 0 -69 -63 -64 -83 2 -9 1 -15
-4 -12 -4 3 -11 -6 -14 -19 -6 -25 -1 -230 8 -281 10 -65 15 -92 21 -135 12
-73 72 -261 100 -312 29 -52 40 -63 77 -77 22 -8 32 -6 53 10 73 58 157 347
159 546 1 29 3 53 7 53 3 0 6 42 7 93 3 93 -14 172 -36 172 -6 0 -14 4 -19 9
-5 5 -3 6 5 2 21 -13 13 10 -14 38 -24 23 -36 28 -60 25 -4 0 -10 4 -13 10
-10 15 -132 19 -138 4z m27 -17 c0 -9 -32 -36 -42 -36 -6 0 0 9 13 20 25 21
29 23 29 16z m70 -51 c0 -5 -5 -3 -10 5 -5 8 -10 20 -10 25 0 6 5 3 10 -5 5
-8 10 -19 10 -25z m105 25 c3 -6 -1 -7 -9 -4 -18 7 -21 14 -7 14 6 0 13 -4 16
-10z m-20 -20 c-3 -5 -14 -10 -23 -9 -14 0 -13 2 3 9 27 11 27 11 20 0z m-109
-19 c0 -12 -6 -17 -18 -13 -10 2 -18 9 -18 14 0 5 4 7 9 3 5 -3 12 -1 16 5 9
14 11 13 11 -9z m-147 -13 c-12 -23 -21 -24 -12 -1 5 12 3 14 -7 8 -8 -5 -11
-4 -7 2 3 5 13 10 21 10 11 0 13 -5 5 -19z m268 8 c0 -8 -8 -11 -21 -8 -19 5
-19 6 0 13 10 4 19 8 20 8 0 1 1 -5 1 -13z m-182 -15 c3 -5 2 -12 -3 -15 -5
-3 -9 1 -9 9 0 17 3 19 12 6z m118 -16 c-7 -21 -12 -19 -10 4 0 11 5 18 9 15
4 -3 5 -11 1 -19z m-146 -7 c-3 -8 -6 -5 -6 6 -1 11 2 17 5 13 3 -3 4 -12 1
-19z m116 1 c-8 -8 -13 -7 -18 2 -5 8 -4 10 3 5 7 -4 12 -2 12 5 0 7 3 9 7 6
4 -4 2 -12 -4 -18z m119 -7 c3 -11 0 -19 -7 -19 -8 0 -11 7 -7 15 4 11 1 13
-8 7 -9 -5 -11 -4 -6 3 11 17 23 15 28 -6z m-45 -24 c2 -18 0 -20 -7 -8 -12
18 -13 30 -2 30 4 0 9 -10 9 -22z m-117 -7 c0 -13 -29 -8 -34 5 -3 7 2 10 15
7 10 -3 19 -9 19 -12z m-46 -7 c3 -8 2 -12 -4 -9 -6 3 -10 10 -10 16 0 14 7
11 14 -7z m206 2 c0 -2 -8 -10 -17 -17 -16 -13 -17 -12 -4 4 13 16 21 21 21
13z m-248 -25 c-5 -14 -4 -14 14 -1 18 14 18 14 3 -5 -9 -11 -15 -28 -14 -38
2 -9 0 -15 -5 -12 -5 3 -7 13 -5 23 1 9 -1 24 -6 33 -5 10 -4 16 6 16 8 0 11
-7 7 -16z m125 12 c-4 -3 1 -16 10 -27 14 -15 14 -18 2 -8 -9 6 -18 9 -22 6
-3 -3 -4 2 -2 13 5 24 4 23 12 23 3 0 3 -3 0 -7z m40 1 c-3 -3 -12 -4 -19 -1
-8 3 -5 6 6 6 11 1 17 -2 13 -5z m-230 -26 c-3 -8 -6 -5 -6 6 -1 11 2 17 5 13
3 -3 4 -12 1 -19z m253 18 c0 -2 -6 -9 -14 -15 -11 -9 -16 -9 -22 0 -4 7 -3 9
4 5 6 -3 13 -2 17 4 6 10 15 14 15 6z m-265 -44 c-3 -3 -11 0 -18 7 -9 10 -8
11 6 5 10 -3 15 -9 12 -12z m50 9 c-9 -8 -36 -10 -30 -2 2 4 11 8 20 8 8 0 13
-3 10 -6z m75 1 c0 -5 -7 -9 -15 -9 -8 0 -12 4 -9 9 3 4 9 8 15 8 5 0 9 -4 9
-8z m154 -8 c3 -8 2 -12 -4 -9 -6 3 -10 10 -10 16 0 14 7 11 14 -7z m-96 -19
c-3 -3 -9 2 -12 12 -6 14 -5 15 5 6 7 -7 10 -15 7 -18z m-181 -30 c0 -8 -4
-12 -9 -9 -5 3 -6 10 -3 15 9 13 12 11 12 -6z m203 11 c0 -2 -8 -10 -17 -17
-16 -13 -17 -12 -4 4 13 16 21 21 21 13z m96 -52 c1 -9 0 -13 -4 -10 -3 4 -7
14 -8 22 -1 9 0 13 4 10 3 -4 7 -14 8 -22z m-323 -9 c4 -8 3 -16 -1 -19 -4 -3
-9 4 -9 15 -2 23 3 25 10 4z m65 -20 c-3 -3 -9 2 -12 12 -6 14 -5 15 5 6 7 -7
10 -15 7 -18z m7 -55 c3 -6 -1 -7 -9 -4 -18 7 -21 14 -7 14 6 0 13 -4 16 -10z"/>
<path d="M4474 2524 c4 -11 2 -11 -13 -3 -14 9 -28 7 -69 -12 -28 -13 -49 -26
-46 -30 2 -4 -3 -10 -12 -13 -15 -6 -15 -9 2 -29 10 -12 12 -16 4 -9 -22 19
-40 14 -52 -15 -15 -39 -18 -52 -18 -98 1 -67 3 -80 14 -87 8 -6 8 -8 -1 -8
-10 0 -6 -28 14 -90 3 -8 7 -28 9 -45 1 -16 10 -47 19 -67 8 -21 13 -38 10
-38 -13 0 79 -229 126 -310 25 -43 92 -110 112 -110 94 0 147 200 142 530 -4
203 -6 233 -20 242 -6 5 -5 8 4 8 8 0 4 7 -10 18 -17 15 -19 21 -9 27 8 5 11
4 6 -3 -3 -6 -2 -13 4 -17 13 -8 13 6 0 39 -5 14 -15 24 -22 22 -7 -1 -10 -1
-5 1 13 8 7 21 -24 53 -25 24 -34 28 -45 19 -12 -10 -13 -8 -8 6 5 12 4 16 -3
12 -6 -4 -13 -3 -15 2 -1 5 -25 12 -51 14 -39 4 -47 2 -43 -9z m23 -16 c-3 -8
-6 -5 -6 6 -1 11 2 17 5 13 3 -3 4 -12 1 -19z m-55 -17 c-5 -13 -3 -14 9 -4
12 10 15 8 15 -6 0 -12 -5 -17 -15 -13 -8 3 -12 1 -8 -5 3 -5 -1 -10 -9 -10
-10 0 -11 4 -5 10 6 6 7 17 1 27 -6 12 -5 17 5 17 8 0 11 -7 7 -16z m168 -11
c0 -5 -5 -10 -11 -10 -5 0 -7 5 -4 10 3 6 8 10 11 10 2 0 4 -4 4 -10z m-129
-37 c-12 -20 -14 -14 -5 12 4 9 9 14 11 11 3 -2 0 -13 -6 -23z m94 17 c-3 -5
-14 -10 -23 -9 -14 0 -13 2 3 9 27 11 27 11 20 0z m70 -9 c3 -6 -3 -14 -13
-20 -14 -7 -19 -6 -19 4 0 7 7 11 15 7 10 -3 13 -1 8 6 -4 7 -5 12 -2 12 3 0
7 -4 11 -9z m-58 -15 c0 -8 -8 -11 -21 -8 -19 5 -19 6 0 13 10 4 19 8 20 8 0
1 1 -5 1 -13z m-226 -33 c-12 -20 -14 -14 -5 12 4 9 9 14 11 11 3 -2 0 -13 -6
-23z m164 -4 c1 -11 -1 -22 -5 -24 -3 -2 -6 9 -6 25 0 33 9 32 11 -1z m-28
-11 c-3 -7 -5 -2 -5 12 0 14 2 19 5 13 2 -7 2 -19 0 -25z m-31 10 c3 -4 -1 -5
-10 -4 -8 1 -18 5 -22 8 -3 4 1 5 10 4 8 -1 18 -5 22 -8z m148 0 c-3 -4 -9 -8
-15 -8 -5 0 -9 4 -9 8 0 5 7 9 15 9 8 0 12 -4 9 -9z m56 4 c0 -5 -7 -9 -15 -9
-8 0 -12 4 -9 9 3 4 9 8 15 8 5 0 9 -4 9 -8z m-85 -32 c-3 -5 -14 -10 -23 -9
-14 0 -13 2 3 9 27 11 27 11 20 0z m-238 -15 c5 -4 2 -5 -6 0 -11 6 -13 4 -8
-8 9 -23 0 -21 -13 2 -7 15 -7 19 5 17 8 -1 18 -6 22 -11z m97 3 c-3 -4 -11
-5 -19 -1 -21 7 -19 12 4 10 11 0 18 -5 15 -9z m165 -11 c8 -10 7 -14 -2 -14
-8 0 -14 6 -14 14 0 7 1 13 2 13 2 0 8 -6 14 -13z m-196 -14 c-3 -7 -6 -13 -8
-13 -2 0 -5 6 -8 13 -3 8 1 14 8 14 7 0 11 -6 8 -14z m74 -3 c-1 -21 -10 -18
-13 5 -1 8 2 15 6 15 5 0 8 -9 7 -20z m89 8 c3 -4 -1 -5 -10 -4 -8 1 -18 5
-22 8 -3 4 1 5 10 4 8 -1 18 -5 22 -8z m79 2 c-3 -5 -12 -10 -18 -10 -7 0 -6
4 3 10 19 12 23 12 15 0z m-285 -20 c0 -5 -4 -10 -10 -10 -5 0 -10 5 -10 10 0
6 5 10 10 10 6 0 10 -4 10 -10z m44 -18 c3 -5 -1 -9 -9 -9 -8 0 -12 4 -9 9 3
4 7 8 9 8 2 0 6 -4 9 -8z m276 -2 c0 -5 -2 -10 -4 -10 -3 0 -8 5 -11 10 -3 6
-1 10 4 10 6 0 11 -4 11 -10z m-228 -15 c2 3 5 -2 5 -10 0 -10 -4 -12 -12 -5
-7 5 -14 8 -17 5 -2 -3 -5 2 -5 10 0 10 4 12 12 5 7 -5 14 -8 17 -5z m-32 -45
c0 -5 -2 -10 -4 -10 -3 0 -8 5 -11 10 -3 6 -1 10 4 10 6 0 11 -4 11 -10z
m-100 -14 c0 -2 -7 -7 -16 -10 -8 -3 -12 -2 -9 4 6 10 25 14 25 6z m244 -4 c3
-5 -1 -9 -9 -9 -8 0 -12 4 -9 9 3 4 7 8 9 8 2 0 6 -4 9 -8z m71 -1 c-9 -8 -36
-10 -30 -2 2 4 11 8 20 8 8 0 13 -3 10 -6z m-275 -15 c0 -3 -4 -8 -10 -11 -5
-3 -10 -1 -10 4 0 6 5 11 10 11 6 0 10 -2 10 -4z m0 -46 c0 -5 -2 -10 -4 -10
-3 0 -8 5 -11 10 -3 6 -1 10 4 10 6 0 11 -4 11 -10z m280 4 c0 -8 -19 -13 -24
-6 -3 5 1 9 9 9 8 0 15 -2 15 -3z m-305 -23 c3 -5 2 -12 -3 -15 -5 -3 -9 1 -9
9 0 17 3 19 12 6z"/>
</g>
</svg>
